<?xml version="1.0" encoding="utf-8"?>

<!DOCTYPE svg PUBLIC "-//W3C//DTD SVG 1.1//EN" "http://www.w3.org/Graphics/SVG/1.1/DTD/svg11.dtd">
<svg version="1.1" id="Layer_1" xmlns="http://www.w3.org/2000/svg" xmlns:xlink="http://www.w3.org/1999/xlink" x="0px" y="0px"
	 viewBox="0 0 2610 394" enable-background="new 0 0 2610 394" xml:space="preserve">
<g>
	<g>
		<path d="M1355.813,200.739c2.554-1.179,5.018-2.427,7.394-3.739c-2.376-1.312-4.84-2.559-7.394-3.739
			c-24.734-11.422-31.909-27.992-18.892-41.931c12.085-12.941,31.137-8.412,51.607,5.99c16.553,11.647,29.051,24.895,37.954,39.679
			c-8.904,14.784-21.401,28.033-37.954,39.679c-20.47,14.403-39.522,18.931-51.607,5.99
			C1323.904,228.731,1331.078,212.161,1355.813,200.739z"/>
		<path d="M1410.745,258.897c-14.402,20.47-18.931,39.522-5.99,51.607c13.939,13.017,30.509,5.842,41.931-18.892
			c23.891-51.735,75.56-66.435,131.322-65.892c69.294,0.675,151.039,42.522,240.067,83.401
			c72.126,33.119,149.288,54.117,230.851,57.137c150.824,5.585,275.45-55.471,376.458-161.273l38.492-0.036L2585,197l-121.125-7.95
			l-38.492-0.036C2324.376,83.213,2199.75,22.157,2048.926,27.741c-81.563,3.02-158.725,24.018-230.851,57.137
			c-89.027,40.879-170.773,82.726-240.067,83.401c-55.762,0.543-107.431-14.157-131.322-65.892
			c-11.422-24.734-27.992-31.909-41.931-18.892c-12.941,12.085-8.412,31.137,5.99,51.607c20.835,29.613,46.803,46.235,77.51,52.529
			h-47.198v18.735h47.197C1457.548,212.662,1431.581,229.284,1410.745,258.897z M2168.25,197l-14.266-9.368h-421.241
			c132.57-71.994,267.449-97.032,407.878-25.573c20.85,10.61,43.151,22.171,66.342,34.941
			c-23.191,12.77-45.492,24.331-66.342,34.941c-140.429,71.459-275.308,46.421-407.878-25.573h421.241L2168.25,197z
			 M1732.411,187.632h-174.606c57.251-6.742,113.152-21.482,169.497-49.304c109.152-53.896,216.52-86.795,310.105-93.999
			c92.409-7.114,191.685,23.039,276.468,68.656c37.408,20.127,73.661,48.525,108.552,84.014
			c-34.891,35.489-71.145,63.887-108.552,84.014c-84.783,45.617-184.059,75.77-276.468,68.656
			c-93.586-7.204-200.953-40.103-310.105-93.999c-56.345-27.822-112.246-42.562-169.497-49.304h174.606
			c101.752,73.992,194.283,105.304,279.192,99.528c101.883-6.93,203.923-52.489,302.542-108.896
			c-98.619-56.407-200.659-101.966-302.542-108.896C1926.694,82.328,1834.163,113.64,1732.411,187.632z"/>
	</g>
	<g>
		<path d="M1254.187,200.739c-2.554-1.179-5.018-2.427-7.394-3.739c2.376-1.312,4.84-2.559,7.394-3.739
			c24.734-11.422,31.909-27.992,18.892-41.931c-12.085-12.941-31.137-8.412-51.607,5.99c-16.553,11.647-29.051,24.895-37.954,39.679
			c8.904,14.784,21.401,28.033,37.954,39.679c20.47,14.403,39.522,18.931,51.607,5.99
			C1286.096,228.731,1278.922,212.161,1254.187,200.739z"/>
		<path d="M1199.255,258.897c14.402,20.47,18.931,39.522,5.99,51.607c-13.939,13.017-30.509,5.842-41.931-18.892
			c-23.891-51.735-75.56-66.435-131.322-65.892c-69.294,0.675-151.039,42.522-240.067,83.401
			c-72.126,33.119-149.288,54.117-230.851,57.137c-150.824,5.585-275.45-55.471-376.457-161.273l-38.492-0.036L25,197l121.125-7.95
			l38.492-0.036C285.624,83.213,410.25,22.157,561.074,27.741c81.563,3.02,158.725,24.018,230.851,57.137
			c89.027,40.879,170.773,82.726,240.067,83.401c55.762,0.543,107.431-14.157,131.322-65.892
			c11.422-24.734,27.992-31.909,41.931-18.892c12.941,12.085,8.412,31.137-5.99,51.607c-20.835,29.613-46.803,46.235-77.51,52.529
			h47.198v18.735h-47.197C1152.452,212.662,1178.419,229.284,1199.255,258.897z M441.75,197l14.266-9.368h421.241
			c-132.57-71.994-267.449-97.032-407.878-25.573c-20.85,10.61-43.151,22.171-66.342,34.941
			c23.191,12.77,45.492,24.331,66.342,34.941c140.429,71.459,275.308,46.421,407.878-25.573H456.016L441.75,197z M877.589,187.632
			h174.606c-57.251-6.742-113.152-21.482-169.497-49.304C773.546,84.432,666.179,51.534,572.593,44.33
			c-92.409-7.114-191.685,23.039-276.468,68.656c-37.408,20.127-73.661,48.525-108.552,84.014
			c34.891,35.489,71.144,63.887,108.552,84.014c84.784,45.617,184.059,75.77,276.468,68.656
			c93.586-7.204,200.953-40.103,310.105-93.999c56.345-27.822,112.247-42.562,169.497-49.304H877.589
			c-101.752,73.992-194.283,105.304-279.192,99.528C496.514,298.966,394.474,253.407,295.855,197
			c98.619-56.407,200.659-101.966,302.542-108.896C683.306,82.328,775.837,113.64,877.589,187.632z"/>
	</g>
</g>
</svg>
