<?xml version="1.0" encoding="utf-8"?>

<!DOCTYPE svg PUBLIC "-//W3C//DTD SVG 1.1//EN" "http://www.w3.org/Graphics/SVG/1.1/DTD/svg11.dtd">
<svg version="1.1" id="Layer_1" xmlns="http://www.w3.org/2000/svg" xmlns:xlink="http://www.w3.org/1999/xlink" x="0px" y="0px"
	 viewBox="0 0 2633.902 996.461" enable-background="new 0 0 2633.902 996.461" xml:space="preserve">
<g>
	<g>
		<path d="M1994.167,337.107c-60.094-57.245-128.092-89.884-212.817-71.922c-35.346,7.494-77.862,17.351-121.739,34.419
			c-79.892,31.079-151.146,46.562-216.863,26.573c-74.961-22.801-119.088-81.307-124.435-138.409
			c-6.596-70.439,28.127-130.161,93.655-150.54c65.008-20.217,133.167,16.08,141.718,66.592
			c6.736,39.793-10.218,61.118-35.794,69.209c-15.102,3.679-30.332-4.338-29.177-18.403c0.756-9.201,7.235-13.691,12.416-13.662
			c-4.098,1.997-8.786,6.402-9.139,13.625c-0.441,9.01,7.245,14.105,16.546,13.843c17.623-0.497,27.919-13.821,31.265-34.747
			c4.898-30.635-10.422-55.785-43.329-68.979c-36.588-14.67-75.187-10.441-107.058,17.183
			c-28.223,24.462-39.964,59.35-35.346,98.994c5.513,47.327,38.096,80.762,84.596,101.272
			c46.567,20.539,105.009,19.866,169.993-0.646c83.869-26.473,173.298-52.513,251.457-37.167
			C1906.015,253.355,1950.681,283.2,1994.167,337.107z"/>
		<path d="M1994.167,659.354c-60.094,57.245-128.092,89.884-212.817,71.922c-35.346-7.494-77.862-17.351-121.739-34.419
			c-79.892-31.079-151.146-46.562-216.863-26.573c-74.961,22.801-119.088,81.307-124.435,138.409
			c-6.596,70.439,28.127,130.161,93.655,150.54c65.008,20.217,133.167-16.08,141.718-66.592
			c6.736-39.793-10.218-61.118-35.794-69.209c-15.102-3.679-30.332,4.338-29.177,18.403c0.756,9.201,7.235,13.691,12.416,13.662
			c-4.098-1.997-8.786-6.401-9.139-13.625c-0.441-9.01,7.245-14.105,16.546-13.843c17.623,0.497,27.919,13.821,31.265,34.747
			c4.898,30.635-10.422,55.785-43.329,68.979c-36.588,14.67-75.187,10.441-107.058-17.183
			c-28.223-24.462-39.964-59.35-35.346-98.994c5.513-47.327,38.096-80.763,84.596-101.272
			c46.567-20.539,105.009-19.866,169.993,0.646c83.869,26.473,173.298,52.513,251.457,37.167
			C1906.015,743.107,1950.681,713.262,1994.167,659.354z"/>
		<path d="M1386.173,231.042c-13.755-20.032-20.886-40.818-22.53-62.23l263.183,70.258c68.458-41.669,143.07-56.309,222.097-31.966
			c42.737,13.164,80.594,35.219,114.068,62.973c41.318,34.259,78.646,67.996,115.221,78.18c29.433,8.195,58.862,7.742,78.842-16.249
			c9.552-11.47,19.339-12.917,24.87-4.052c5.135,8.231,0.037,17.671-10.488,26.462c-22.388,18.7-46.664,20.976-73.372,11.442
			c-33.845-12.082-65.269-28.864-94.613-54.624c-50.123-44.001-102.278-76.637-150.784-93.72
			c-47.896-16.869-104.71-14.989-156.048-2.87c-39.982,9.438-81.715,33.024-123.673,67.486L1386.173,231.042z"/>
		<path d="M1386.173,765.42c-13.755,20.032-20.886,40.818-22.53,62.23l263.183-70.258c68.458,41.669,143.07,56.309,222.097,31.966
			c42.737-13.164,80.594-35.219,114.068-62.973c41.318-34.259,78.646-67.996,115.221-78.18c29.433-8.195,58.862-7.742,78.842,16.249
			c9.552,11.47,19.339,12.917,24.87,4.052c5.135-8.231,0.037-17.671-10.488-26.462c-22.388-18.7-46.664-20.977-73.372-11.442
			c-33.845,12.082-65.269,28.864-94.613,54.624c-50.123,44.001-102.278,76.637-150.784,93.72
			c-47.896,16.869-104.71,14.989-156.048,2.87c-39.982-9.438-81.715-33.024-123.673-67.486L1386.173,765.42z"/>
		<polygon points="2596.951,498.231 1770.652,276.825 1675.448,308.292 2311.784,480.277 2379.376,498.231 2311.784,516.185 
			1675.448,688.17 1770.652,719.637 		"/>
	</g>
	<g>
		<path d="M639.734,659.354c60.094,57.245,128.092,89.884,212.818,71.922c35.346-7.494,77.862-17.351,121.739-34.419
			c79.892-31.079,151.146-46.562,216.863-26.573c74.96,22.801,119.088,81.307,124.435,138.409
			c6.596,70.439-28.127,130.161-93.655,150.54c-65.008,20.217-133.167-16.08-141.718-66.592
			c-6.736-39.793,10.218-61.118,35.794-69.209c15.102-3.679,30.332,4.338,29.177,18.403c-0.756,9.201-7.235,13.691-12.416,13.662
			c4.098-1.997,8.786-6.401,9.139-13.625c0.441-9.01-7.245-14.105-16.546-13.843c-17.623,0.497-27.919,13.821-31.265,34.747
			c-4.898,30.635,10.422,55.785,43.329,68.979c36.588,14.67,75.187,10.441,107.058-17.183c28.223-24.462,39.964-59.35,35.346-98.994
			c-5.513-47.327-38.096-80.763-84.596-101.272c-46.567-20.539-105.009-19.866-169.993,0.646
			c-83.869,26.473-173.298,52.513-251.457,37.167C727.886,743.107,683.221,713.262,639.734,659.354z"/>
		<path d="M639.734,337.107c60.094-57.245,128.092-89.884,212.818-71.922c35.346,7.494,77.862,17.351,121.739,34.419
			c79.892,31.079,151.146,46.562,216.863,26.573c74.96-22.801,119.088-81.307,124.435-138.409
			c6.596-70.439-28.127-130.161-93.655-150.54c-65.008-20.217-133.167,16.08-141.718,66.592
			c-6.736,39.793,10.218,61.118,35.794,69.209c15.102,3.679,30.332-4.338,29.177-18.403c-0.756-9.201-7.235-13.691-12.416-13.662
			c4.098,1.997,8.786,6.402,9.139,13.625c0.441,9.01-7.245,14.105-16.546,13.843c-17.623-0.497-27.919-13.821-31.265-34.747
			c-4.898-30.635,10.422-55.785,43.329-68.979c36.588-14.67,75.187-10.441,107.058,17.183c28.223,24.462,39.964,59.35,35.346,98.994
			c-5.513,47.327-38.096,80.762-84.596,101.272c-46.567,20.539-105.009,19.866-169.993-0.646
			c-83.869-26.473-173.298-52.513-251.457-37.167C727.886,253.355,683.221,283.2,639.734,337.107z"/>
		<path d="M1247.729,765.42c13.755,20.032,20.886,40.818,22.53,62.23l-263.183-70.258c-68.458,41.669-143.07,56.309-222.097,31.966
			c-42.737-13.164-80.594-35.219-114.068-62.973c-41.318-34.259-78.646-67.996-115.221-78.18
			c-29.433-8.195-58.862-7.742-78.842,16.249c-9.552,11.47-19.339,12.917-24.87,4.052c-5.135-8.231-0.037-17.671,10.488-26.462
			c22.388-18.7,46.664-20.977,73.372-11.442c33.845,12.082,65.269,28.864,94.613,54.624c50.123,44.001,102.278,76.637,150.784,93.72
			c47.896,16.869,104.71,14.989,156.048,2.87c39.982-9.438,81.715-33.024,123.673-67.486L1247.729,765.42z"/>
		<path d="M1247.729,231.042c13.755-20.032,20.886-40.818,22.53-62.23l-263.183,70.258c-68.458-41.669-143.07-56.309-222.097-31.966
			c-42.737,13.164-80.594,35.219-114.068,62.973c-41.318,34.259-78.646,67.996-115.221,78.18
			c-29.433,8.195-58.862,7.742-78.842-16.249c-9.552-11.47-19.339-12.917-24.87-4.052c-5.135,8.231-0.037,17.671,10.488,26.462
			c22.388,18.7,46.664,20.976,73.372,11.442c33.845-12.082,65.269-28.864,94.613-54.624c50.123-44.001,102.278-76.637,150.784-93.72
			c47.896-16.869,104.71-14.989,156.048-2.87c39.982,9.438,81.715,33.024,123.673,67.486L1247.729,231.042z"/>
		<polygon points="36.951,498.231 863.25,719.637 958.453,688.17 322.117,516.185 254.526,498.231 322.117,480.277 958.453,308.292 
			863.25,276.825 		"/>
	</g>
</g>
</svg>
